<?xml version="1.0" encoding="UTF-8" standalone="no"?><!-- Generator: Gravit.io --><svg xmlns="http://www.w3.org/2000/svg" xmlns:xlink="http://www.w3.org/1999/xlink" style="isolation:isolate" viewBox="0 0 16 16" width="16pt" height="16pt"><defs><clipPath id="_clipPath_YBAlETs69yfvjrXX3CGsnMMneviXQNJf"><rect width="16" height="16"/></clipPath></defs><g clip-path="url(#_clipPath_YBAlETs69yfvjrXX3CGsnMMneviXQNJf)"><rect width="16" height="16" style="fill:rgb(0,0,0)" fill-opacity="0"/><path d=" M 14.857 12.571 L 14.857 13.714 L 11.429 13.714 L 11.429 12.571 L 12.571 12.571 L 12.571 11.429 L 11.429 11.429 L 11.429 12.571 L 4.571 12.571 L 4.571 11.429 L 3.429 11.429 L 3.429 12.571 L 4.571 12.571 L 4.571 13.714 L 1.143 13.714 L 1.143 12.571 L 0 12.571 L 0 11.429 L 0 10.286 L 0 8 L 0 6.857 L 1.143 6.857 L 1.143 5.714 L 1.143 4.571 L 2.286 4.571 L 2.286 3.429 L 3.429 3.429 L 3.429 4.571 L 4.571 4.571 L 4.571 3.429 L 11.429 3.429 L 11.429 4.571 L 12.571 4.571 L 12.571 3.429 L 13.714 3.429 L 13.714 4.571 L 14.857 4.571 L 14.857 5.714 L 14.857 6.857 L 16 6.857 L 16 8 L 16 10.286 L 16 11.429 L 16 12.571 L 14.857 12.571 Z  M 6.857 8 L 4.571 8 L 4.571 10.286 L 6.857 10.286 L 6.857 8 Z  M 11.429 8 L 9.143 8 L 9.143 10.286 L 11.429 10.286 L 11.429 8 Z  M 3.429 2.286 L 4.571 2.286 L 4.571 3.429 L 3.429 3.429 L 3.429 2.286 Z  M 11.429 2.286 L 12.571 2.286 L 12.571 3.429 L 11.429 3.429 L 11.429 2.286 Z " fill="rgb(255,255,255)"/></g></svg>