<?xml version="1.0" encoding="UTF-8" standalone="no"?><!-- Generator: Gravit.io --><svg xmlns="http://www.w3.org/2000/svg" xmlns:xlink="http://www.w3.org/1999/xlink" style="isolation:isolate" viewBox="0 0 16 16" width="16pt" height="16pt"><defs><clipPath id="_clipPath_wB9AE8dCpBfGAFrDTvL3AspvfVUgBZ5g"><rect width="16" height="16"/></clipPath></defs><g clip-path="url(#_clipPath_wB9AE8dCpBfGAFrDTvL3AspvfVUgBZ5g)"><rect width="16" height="16" style="fill:rgb(0,0,0)" fill-opacity="0"/><path d=" M 11 9 L 11 10 L 10 10 L 10 10 L 10 11 L 9 11 L 9 12 L 7 12 L 7 11 L 6 11 L 6 10 L 5 10 L 5 9 L 5 9 L 5 9 L 5 9 L 4 9 L 4 7 L 6 7 L 6 8 L 7 8 L 7 1 L 9 1 L 9 8 L 10 8 L 10 7 L 12 7 L 12 9 L 11 9 Z " fill="rgb(255,255,255)"/><path d=" M 13 13 L 3 13 L 3 13 L 3 11 L 1 11 L 1 15 L 3 15 L 13 15 L 15 15 L 15 13 L 15 11 L 13 11 L 13 13 L 13 13 Z " fill="rgb(255,255,255)"/></g></svg>