<?xml version="1.0" encoding="UTF-8" standalone="no"?><!-- Generator: Gravit.io --><svg xmlns="http://www.w3.org/2000/svg" xmlns:xlink="http://www.w3.org/1999/xlink" style="isolation:isolate" viewBox="0 0 16 16" width="16pt" height="16pt"><defs><clipPath id="_clipPath_iKiSrawcs7GgcLQzGW6zWYu79BiSYZAh"><rect width="16" height="16"/></clipPath></defs><g clip-path="url(#_clipPath_iKiSrawcs7GgcLQzGW6zWYu79BiSYZAh)"><path d=" M 13 13 L 13 14 L 3 14 L 3 13 L 3 13 L 3 13 L 3 13 L 3 13 L 3 9 L 4 9 L 4 7 L 5 7 L 5 5 L 6 5 L 6 5 L 6 3 L 5 3 L 5 2 L 5 2 L 6 2 L 6 2 L 6 2 L 7 2 L 9 2 L 10 2 L 10 2 L 11 2 L 11 3 L 10 3 L 10 5 L 11 5 L 11 7 L 12 7 L 12 9 L 13 9 L 13 13 Z  M 12 13 L 4 13 L 4 10 L 5 10 L 5 8 L 5 8 L 6 8 L 6 6 L 7 6 L 7 3 L 9 3 L 9 6 L 10 6 L 10 8 L 11 8 L 11 10 L 12 10 L 12 13 Z " fill-rule="evenodd" fill="rgb(255,255,255)"/></g></svg>