<?xml version="1.0" encoding="UTF-8" standalone="no"?><!-- Generator: Gravit.io --><svg xmlns="http://www.w3.org/2000/svg" xmlns:xlink="http://www.w3.org/1999/xlink" style="isolation:isolate" viewBox="0 0 16 16" width="16pt" height="16pt"><defs><clipPath id="_clipPath_D1D67uf4DI3jqvXPKBkcZOLvPSrxnvK9"><rect width="16" height="16"/></clipPath></defs><g clip-path="url(#_clipPath_D1D67uf4DI3jqvXPKBkcZOLvPSrxnvK9)"><rect width="16" height="16" style="fill:rgb(0,0,0)" fill-opacity="0"/><rect x="0" y="11" width="15" height="1" transform="matrix(1,0,0,1,0,0)" fill="rgb(255,255,255)"/><rect x="1" y="12" width="15" height="1" transform="matrix(1,0,0,1,0,0)" fill="rgb(255,255,255)"/><rect x="0" y="7" width="15" height="1" transform="matrix(1,0,0,1,0,0)" fill="rgb(255,255,255)"/><rect x="1" y="8" width="15" height="1" transform="matrix(1,0,0,1,0,0)" fill="rgb(255,255,255)"/><rect x="0" y="3" width="15" height="1" transform="matrix(1,0,0,1,0,0)" fill="rgb(255,255,255)"/><rect x="1" y="4" width="15" height="1" transform="matrix(1,0,0,1,0,0)" fill="rgb(255,255,255)"/></g></svg>