<?xml version="1.0" encoding="UTF-8" standalone="no"?><!-- Generator: Gravit.io --><svg xmlns="http://www.w3.org/2000/svg" xmlns:xlink="http://www.w3.org/1999/xlink" style="isolation:isolate" viewBox="0 0 16 16" width="16pt" height="16pt"><defs><clipPath id="_clipPath_F010iMyuMpKQIqOnodEWM47ZJ5QrGyoF"><rect width="16" height="16"/></clipPath></defs><g clip-path="url(#_clipPath_F010iMyuMpKQIqOnodEWM47ZJ5QrGyoF)"><rect width="16" height="16" style="fill:rgb(0,0,0)" fill-opacity="0"/><path d=" M 15 4 L 15 3 L 0 3 L 0 3 L 0 4 L 1 4 L 1 5 L 16 5 L 16 4 L 15 4 Z  M 15 8 L 15 7 L 0 7 L 0 7 L 0 8 L 1 8 L 1 9 L 16 9 L 16 8 L 15 8 L 15 8 L 15 8 Z  M 15 12 L 15 11 L 0 11 L 0 12 L 1 12 L 1 13 L 16 13 L 16 12 L 15 12 L 15 12 L 15 12 L 15 12 Z " fill-rule="evenodd" fill="rgb(255,255,255)"/></g></svg>