<?xml version="1.0" encoding="UTF-8" standalone="no"?><!-- Generator: Gravit.io --><svg xmlns="http://www.w3.org/2000/svg" xmlns:xlink="http://www.w3.org/1999/xlink" style="isolation:isolate" viewBox="0 0 16 16" width="16pt" height="16pt"><defs><clipPath id="_clipPath_mgZBofnhB63jqfmgI0WJPiOGVvlNWSnO"><rect width="16" height="16"/></clipPath></defs><g clip-path="url(#_clipPath_mgZBofnhB63jqfmgI0WJPiOGVvlNWSnO)"><path d=" M 2 7 L 2 8 L 2 13 L 2 13 L 2 15 L 4 15 L 12 15 L 14 15 L 14 13 L 14 8 L 14 7 L 15 7 L 15 6 L 14 6 L 14 5 L 13 5 L 13 4 L 12 4 L 12 3 L 11 3 L 11 2 L 10 2 L 10 1 L 6 1 L 6 2 L 5 2 L 5 3 L 4 3 L 4 4 L 3 4 L 3 5 L 2 5 L 2 6 L 1 6 L 1 7 L 2 7 Z  M 12 6 L 12 5 L 11 5 L 11 4 L 10 4 L 10 3 L 6 3 L 6 4 L 5 4 L 5 5 L 4 5 L 4 6 L 12 6 Z  M 4 13 L 4 8 L 12 8 L 12 13 L 4 13 L 4 13 Z " fill-rule="evenodd" fill="rgb(255,255,255)"/></g></svg>