<?xml version="1.0" encoding="UTF-8" standalone="no"?><!-- Generator: Gravit.io --><svg xmlns="http://www.w3.org/2000/svg" xmlns:xlink="http://www.w3.org/1999/xlink" style="isolation:isolate" viewBox="0 0 16 16" width="16pt" height="16pt"><defs><clipPath id="_clipPath_HfXw3Q4bGMm3eEPXaVMzS4LKsql5efcC"><rect width="16" height="16"/></clipPath></defs><g clip-path="url(#_clipPath_HfXw3Q4bGMm3eEPXaVMzS4LKsql5efcC)"><path d=" M 12 6 L 11 6 L 11 7 L 10 7 L 10 8 L 9 8 L 9 9 L 7 9 L 7 8 L 6 8 L 6 7 L 5 7 L 5 6 L 4 6 L 4 5 L 1 5 L 1 6 L 2 6 L 2 7 L 3 7 L 3 8 L 4 8 L 4 9 L 5 9 L 5 10 L 6 10 L 6 11 L 10 11 L 10 10 L 11 10 L 11 9 L 12 9 L 12 8 L 13 8 L 13 7 L 14 7 L 14 6 L 15 6 L 15 5 L 12 5 L 12 6 Z " fill="rgb(255,255, 255)"/></g></svg>