<?xml version="1.0" encoding="UTF-8" standalone="no"?><!-- Generator: Gravit.io --><svg xmlns="http://www.w3.org/2000/svg" xmlns:xlink="http://www.w3.org/1999/xlink" style="isolation:isolate" viewBox="0 0 16 16" width="16pt" height="16pt"><defs><clipPath id="_clipPath_mQVMvFIZoKmgp5BBGbPd3PpCIfugN0Hp"><rect width="16" height="16"/></clipPath></defs><g clip-path="url(#_clipPath_mQVMvFIZoKmgp5BBGbPd3PpCIfugN0Hp)"><rect width="16" height="16" style="fill:rgb(0,0,0)" fill-opacity="0"/><path d=" M 1 14 L 1 13 L 2 13 L 2 12 L 3 12 L 3 11 L 4 11 L 4 10 L 5 10 L 5 9 L 6 9 L 6 7 L 5 7 L 5 6 L 4 6 L 4 5 L 3 5 L 3 4 L 2 4 L 2 3 L 1 3 L 1 2 L 0 2 L 0 0 L 2 0 L 2 1 L 3 1 L 3 2 L 4 2 L 4 3 L 5 3 L 5 4 L 6 4 L 6 5 L 7 5 L 7 6 L 9 6 L 9 5 L 10 5 L 10 4 L 11 4 L 11 4 L 11 3 L 12 3 L 12 2 L 13 2 L 13 2 L 13 1 L 14 1 L 14 0 L 14 0 L 16 0 L 16 2 L 15 2 L 15 2 L 15 3 L 14 3 L 14 4 L 13 4 L 13 4 L 13 5 L 12 5 L 12 6 L 11 6 L 11 6 L 11 7 L 10 7 L 10 9 L 11 9 L 11 10 L 12 10 L 12 11 L 13 11 L 13 12 L 14 12 L 14 13 L 15 13 L 15 14 L 16 14 L 16 16 L 14 16 L 14 15 L 14 15 L 14 15 L 14 15 L 14 15 L 14 15 L 14 15 L 13 15 L 13 14 L 12 14 L 12 13 L 11 13 L 11 12 L 10 12 L 10 11 L 9 11 L 9 10 L 7 10 L 7 11 L 6 11 L 6 12 L 5 12 L 5 13 L 4 13 L 4 14 L 3 14 L 3 15 L 2 15 L 2 16 L 0 16 L 0 14 L 1 14 Z " fill="rgb(255,255,255)"/></g></svg>