<?xml version="1.0" encoding="UTF-8" standalone="no"?><!-- Generator: Gravit.io --><svg xmlns="http://www.w3.org/2000/svg" xmlns:xlink="http://www.w3.org/1999/xlink" style="isolation:isolate" viewBox="0 0 16 16" width="16pt" height="16pt"><defs><clipPath id="_clipPath_xagf91XdorI8H71nySPKMVAzpRvGCKRH"><rect width="16" height="16"/></clipPath></defs><g clip-path="url(#_clipPath_xagf91XdorI8H71nySPKMVAzpRvGCKRH)"><rect width="16" height="16" style="fill:rgb(0,0,0)" fill-opacity="0"/><path d=" M 13 5 L 13 5 L 13 4 L 12 4 L 12 3 L 11 3 L 11 2 L 10 2 L 10 1 L 9 1 L 9 0 L 7 0 L 7 0 L 4 0 L 2 0 L 2 0 L 2 14 L 2 16 L 4 16 L 12 16 L 14 16 L 14 14 L 14 7 L 14 7 L 14 5 L 13 5 Z  M 10 6 L 9 6 L 8 6 L 8 2 L 7 2 L 4 2 L 4 14 L 12 14 L 12 6 L 10 6 L 10 6 Z " fill-rule="evenodd" fill="rgb(255,255,255)"/></g></svg>