<?xml version="1.0" encoding="UTF-8" standalone="no"?><!-- Generator: Gravit.io --><svg xmlns="http://www.w3.org/2000/svg" xmlns:xlink="http://www.w3.org/1999/xlink" style="isolation:isolate" viewBox="0 0 16 16" width="16pt" height="16pt"><defs><clipPath id="_clipPath_rw5p4QuNhwsqPmqidfbMRnqKRi9mPyZE"><rect width="16" height="16"/></clipPath></defs><g clip-path="url(#_clipPath_rw5p4QuNhwsqPmqidfbMRnqKRi9mPyZE)"><path d=" M 11 2 L 12 2 L 12 4 L 11 4 L 11 6 L 12 6 L 12 7 L 13 7 L 13 14 L 12 14 L 12 15 L 4 15 L 4 14 L 3 14 L 3 7 L 3 7 L 4 7 L 4 6 L 5 6 L 5 4 L 5 4 L 4 4 L 4 2 L 5 2 L 5 1 L 11 1 L 11 2 Z  M 7 4 L 7 7 L 6 7 L 6 8 L 5 8 L 5 13 L 11 13 L 11 8 L 10 8 L 10 7 L 9 7 L 9 4 L 7 4 L 7 4 Z " fill-rule="evenodd" fill="rgb(0,0,0)"/></g></svg>