<?xml version="1.0" encoding="UTF-8" standalone="no"?><!-- Generator: Gravit.io --><svg xmlns="http://www.w3.org/2000/svg" xmlns:xlink="http://www.w3.org/1999/xlink" style="isolation:isolate" viewBox="0 0 16 16" width="16pt" height="16pt"><defs><clipPath id="_clipPath_9OAJaaL1PBnwYMZydPYmXHPp90MPRmGz"><rect width="16" height="16"/></clipPath></defs><g clip-path="url(#_clipPath_9OAJaaL1PBnwYMZydPYmXHPp90MPRmGz)"><rect width="16" height="16" style="fill:rgb(0,0,0)" fill-opacity="0"/><path d=" M 10 4 L 12 4 L 12 4 L 12 10 L 12 10 L 11 10 L 11 11 L 11 11 L 10 11 L 10 11 L 9 11 L 9 11 L 9 12 L 10 12 L 10 15 L 11 15 L 11 15 L 12 15 L 12 14 L 12 14 L 13 14 L 13 13 L 13 13 L 14 13 L 14 12 L 14 12 L 15 12 L 15 5 L 14 5 L 14 3 L 13 3 L 13 2 L 11 2 L 11 1 L 5 1 L 5 2 L 3 2 L 3 3 L 2 3 L 2 5 L 1 5 L 1 12 L 2 12 L 2 13 L 3 13 L 3 13 L 3 14 L 4 14 L 4 15 L 6 15 L 6 13 L 4 13 L 4 13 L 4 13 L 4 13 L 4 12 L 3 12 L 3 10 L 3 10 L 4 10 L 4 4 L 6 4 L 6 5 L 10 5 L 10 4 Z " fill="rgb(255,255,255)"/><path d=" M 4 10 L 5 10 L 5 11 L 4 11 L 4 10 L 4 10 L 4 10 L 4 10 L 4 10 L 4 10 L 4 10 L 4 10 L 4 10 L 4 10 L 4 10 L 4 10 Z " fill="rgb(255,255,255)"/><path d=" M 5 11 L 7 11 L 7 12 L 5 12 L 5 11 L 5 11 L 5 11 L 5 11 L 5 11 L 5 11 L 5 11 L 5 11 Z " fill="rgb(255,255,255)"/></g></svg>