<?xml version="1.0" encoding="UTF-8" standalone="no"?><!-- Generator: Gravit.io --><svg xmlns="http://www.w3.org/2000/svg" xmlns:xlink="http://www.w3.org/1999/xlink" style="isolation:isolate" viewBox="0 0 16 16" width="16pt" height="16pt"><defs><clipPath id="_clipPath_HFu6KD4AEoiJHpWER85g9OvjFlmsr5ew"><rect width="16" height="16"/></clipPath></defs><g clip-path="url(#_clipPath_HFu6KD4AEoiJHpWER85g9OvjFlmsr5ew)"><rect width="16" height="16" style="fill:rgb(0,0,0)" fill-opacity="0"/><path d=" M 8 1 L 8 1 L 6 1 L 6 2 L 5 2 L 5 3 L 4 3 L 4 4 L 3 4 L 3 5 L 2 5 L 2 5 L 2 6 L 1 6 L 1 6 L 1 7 L 1 8 L 2 8 L 2 8 L 2 13 L 2 13 L 2 15 L 4 15 L 12 15 L 14 15 L 14 13 L 14 8 L 15 8 L 15 7 L 15 6 L 14 6 L 14 6 L 14 5 L 13 5 L 13 5 L 13 4 L 12 4 L 12 4 L 12 3 L 11 3 L 11 3 L 11 2 L 10 2 L 10 2 L 10 1 L 8 1 L 8 1 Z  M 8 3 L 7 3 L 7 4 L 6 4 L 6 4 L 6 4 L 6 5 L 5 5 L 5 6 L 5 6 L 5 6 L 11 6 L 11 6 L 11 6 L 11 5 L 10 5 L 10 4 L 10 4 L 10 4 L 9 4 L 9 3 L 8 3 Z  M 4 13 L 4 8 L 12 8 L 12 13 L 4 13 L 4 13 L 4 13 L 4 13 L 4 13 L 4 13 L 4 13 L 4 13 L 4 13 L 4 13 L 4 13 L 4 13 L 4 13 L 4 13 Z " fill-rule="evenodd" fill="rgb(255,255,255)"/></g></svg>