<?xml version="1.0" encoding="UTF-8" standalone="no"?><!-- Generator: Gravit.io --><svg xmlns="http://www.w3.org/2000/svg" xmlns:xlink="http://www.w3.org/1999/xlink" style="isolation:isolate" viewBox="0 0 16 16" width="16pt" height="16pt"><defs><clipPath id="_clipPath_q76hJrtrLHSbJ3Ws6nKV5ttHjIR1D1q4"><rect width="16" height="16"/></clipPath></defs><g clip-path="url(#_clipPath_q76hJrtrLHSbJ3Ws6nKV5ttHjIR1D1q4)"><path d=" M 12 13 L 11 13 L 11 12 L 10 12 L 10 11 L 10 11 L 9 11 L 9 10 L 8 10 L 8 10 L 3 10 L 3 9 L 3 9 L 2 9 L 2 3 L 3 3 L 3 2 L 3 2 L 9 2 L 9 3 L 9 3 L 10 3 L 10 8 L 10 9 L 10 9 L 11 9 L 11 10 L 12 10 L 12 11 L 12 11 L 13 11 L 13 12 L 14 12 L 14 14 L 12 14 L 12 13 Z  M 8 4 L 4 4 L 4 8 L 8 8 L 8 4 L 8 4 L 8 4 L 8 4 L 8 4 L 8 4 Z " fill-rule="evenodd" fill="rgb(255,255,255)"/></g></svg>